<?xml version="1.0" encoding="utf-8"?>
<!DOCTYPE svg PUBLIC "-//W3C//DTD SVG 1.1//EN" "http://www.w3.org/Graphics/SVG/1.1/DTD/svg11.dtd">
<svg version="1.1" id="Layer_1" xmlns="http://www.w3.org/2000/svg" xmlns:xlink="http://www.w3.org/1999/xlink" x="0px" y="0px"
	 viewBox="0 0 2100 225" style="enable-background:new 0 0 2100 225;" xml:space="preserve">
<style type="text/css">
	.st0{fill:url(#SVGID_1_);}
	.st1{fill:url(#SVGID_2_);}
	.st2{fill:#FFFFFF;}
	.st3{fill:url(#SVGID_3_);}
	.st4{fill:url(#SVGID_4_);}
</style>
<linearGradient id="SVGID_1_" gradientUnits="userSpaceOnUse" x1="1310.0687" y1="-2.659432e-02" x2="1310.0687" y2="224.9857">
	<stop  offset="0" style="stop-color:#FFFFFF;stop-opacity:0.5"/>
	<stop  offset="0.97" style="stop-color:#FFFFFF;stop-opacity:0"/>
</linearGradient>
<path class="st0" d="M1250.3,0h36.9l82.7,225H1333L1250.3,0z"/>
<linearGradient id="SVGID_2_" gradientUnits="userSpaceOnUse" x1="1224.7765" y1="224.9857" x2="1224.7765" y2="-2.659432e-02">
	<stop  offset="0" style="stop-color:#FFFFFF"/>
	<stop  offset="7.066998e-03" style="stop-color:#FFFFFF;stop-opacity:0.9293"/>
	<stop  offset="5.000000e-02" style="stop-color:#FFFFFF;stop-opacity:0.5"/>
	<stop  offset="1" style="stop-color:#FFFFFF"/>
</linearGradient>
<path class="st1" d="M1284.6,0h-36.9L1165,225h36.9L1284.6,0z"/>
<path class="st2" d="M1643.6,225L1561.9,0h-27.2l-81.7,225h36l15.3-45.2h88l15.3,45.2H1643.6z M1582.8,150.8h-68.6l34.8-99.9
	L1582.8,150.8z"/>
<path class="st2" d="M1835.8,225v-30.9h-105.7V0l-30.7,0v225L1835.8,225z"/>
<path class="st2" d="M2067,225l-78.4-136.8l71-88.2h-40.6l-93,114.7V0l-30.7,0.1V225h30.7v-66.2l40.5-44.7L2028,225H2067z"/>
<path class="st2" d="M176,158.7h-33c-5.3,22.4-21.2,36.1-45.7,36.1c-13,0-24.8-5-32.6-13.4c-10.9-11.8-11.9-22.3-11.9-66.8
	c0-44.4,1-59.4,11.9-71.2c7.8-8.4,19.5-13.4,32.6-13.4c24.5,0,40.5,13.6,45.7,35.9h33C168.2,22,137.9,0.1,97.2,0.1
	c-22.9,0-42.8,8.4-58,23.6c-21.7,21.7-21.6,48.5-21.6,91c0,42.6-0.1,64.9,21.6,86.6c15.2,15.2,35,23.6,58,23.6
	C137.2,225,168.6,202.8,176,158.7z"/>
<path class="st2" d="M405,225l-53.6-99.8c24.8-6.8,44-27,44-58.7c0-37.6-30-66.5-71.9-66.5h-81.4v225l35.2-0.1v-92.6h39.6l48.5,92.7
	H405z M361.9,66.8c0,21.7-13.8,34.6-36.1,34.6h-48.4V30.9h44C343.7,30.9,361.9,45.1,361.9,66.8z"/>
<path class="st2" d="M833.3,160c0-18.9-5.9-34.8-18-45.4c-9.3-8.4-20.7-13.4-41.2-16.5l-25.1-3.7c-10.2-1.6-19.2-5.3-24.8-10.3
	c-5.9-5.3-8.4-12.4-8.4-20.5c0-19.6,14.2-34.5,40.2-34.5c18.6,0,34.4,4,48,17.1l21.4-21.1C806.7,7.5,786.3,0.1,757.2,0.1
	c-45.8,0-73.7,26.4-73.7,64.9c0,18,5.3,32,16.1,42.2c9.6,9,23.8,15.2,41.8,17.7l26,3.7c13,1.9,18.6,4,24.1,9.3
	c5.9,5.3,8.7,13.4,8.7,23c0,21.4-16.7,33.9-45.5,33.9c-22.6,0-40.2-5-56.3-21.1l-22.3,22.1c21,21.4,44.9,29.2,78,29.2
	C800.2,225,833.3,200.7,833.3,160z"/>
<path class="st2" d="M1047.8,160c0-18.9-5.9-34.8-18-45.4c-9.3-8.4-20.7-13.4-41.2-16.5l-25.1-3.7c-10.2-1.6-19.2-5.3-24.8-10.3
	c-5.9-5.3-8.4-12.4-8.4-20.5c0-19.6,14.2-34.5,40.2-34.5c18.6,0,34.4,4,48,17.1l21.4-21.1c-18.9-17.7-39.3-25.2-68.4-25.2
	C925.9,0.1,898,26.5,898,65c0,18,5.3,32,16.1,42.2c9.6,9,23.8,15.2,41.8,17.7l26,3.7c13,1.9,18.6,4,24.1,9.3
	c5.9,5.3,8.7,13.4,8.7,23c0,21.4-16.7,33.9-45.5,33.9c-22.6,0-40.2-5-56.3-21.1l-22.3,22.1c21,21.4,44.9,29.2,78,29.2
	C1014.7,225,1047.8,200.7,1047.8,160z"/>
<path class="st2" d="M616.4,112.4c0-42.6,0-67-21.1-88.8C580.5,8.4,561.5,0.1,538.6,0.1S497,8.4,482.2,23.7
	c-21.1,21.7-20,46.2-20,88.8c0,42.6-1.1,67.2,20,88.9c14.8,15.2,33.5,23.6,56.4,23.6s41.9-8.4,56.7-23.6
	C616.4,179.6,616.4,155,616.4,112.4z M584.2,112.4c0,44.4-3.2,56.9-13.7,68.7c-7.5,8.4-19.3,13.7-32,13.7c-12.7,0-24.4-5.3-32-13.7
	c-10.6-11.8-12.7-24.2-12.7-68.6s2.1-56.8,12.7-68.6c7.5-8.4,19.3-13.7,32-13.7c12.7,0,24.4,5.3,32,13.7
	C581.1,55.7,584.2,68,584.2,112.4z"/>
<linearGradient id="SVGID_3_" gradientUnits="userSpaceOnUse" x1="1138.3706" y1="-2.659432e-02" x2="1138.3706" y2="224.9857">
	<stop  offset="0" style="stop-color:#FFFFFF;stop-opacity:0.5"/>
	<stop  offset="0.97" style="stop-color:#FFFFFF;stop-opacity:0"/>
</linearGradient>
<path class="st3" d="M1078.6,0h36.9l82.7,225h-36.9L1078.6,0z"/>
<linearGradient id="SVGID_4_" gradientUnits="userSpaceOnUse" x1="1397.4786" y1="224.9857" x2="1397.4786" y2="-2.659432e-02">
	<stop  offset="0" style="stop-color:#FFFFFF"/>
	<stop  offset="7.066998e-03" style="stop-color:#FFFFFF;stop-opacity:0.9293"/>
	<stop  offset="5.000000e-02" style="stop-color:#FFFFFF;stop-opacity:0.5"/>
	<stop  offset="1" style="stop-color:#FFFFFF"/>
</linearGradient>
<path class="st4" d="M1457.3,0h-36.9l-82.7,225h36.9L1457.3,0z"/>
</svg>
