<?xml version="1.0" encoding="utf-8"?>
<!-- Generator: Adobe Illustrator 17.1.0, SVG Export Plug-In . SVG Version: 6.00 Build 0)  -->
<!DOCTYPE svg PUBLIC "-//W3C//DTD SVG 1.1//EN" "http://www.w3.org/Graphics/SVG/1.1/DTD/svg11.dtd">
<svg version="1.1" id="Layer_1" xmlns="http://www.w3.org/2000/svg" xmlns:xlink="http://www.w3.org/1999/xlink" x="0px" y="0px"
	 viewBox="0 0 24 24" style="enable-background:new 0 0 24 24;" xml:space="preserve">
	<path d="M9.5,15.3l0-0.7c-0.1-1.4,0.4-2.9,1.6-4.4c0.9-1.1,1.6-1.9,1.6-2.9c0-1-0.6-1.6-2-1.7C9.8,5.7,8.7,6,8,6.5L7,3.5
		c1-0.6,2.7-1.1,4.6-1.1c3.7,0,5.3,2,5.3,4.3c0,2.1-1.3,3.5-2.4,4.7c-1,1.1-1.4,2.2-1.4,3.5v0.5H9.5z M8.8,19.2c0-1.5,1-2.5,2.5-2.5
		c1.5,0,2.5,1.1,2.5,2.5c0,1.4-1,2.5-2.5,2.5C9.8,21.7,8.8,20.6,8.8,19.2z"/>
</svg>
