<?xml version="1.0" encoding="utf-8"?>
<!-- Generator: Adobe Illustrator 17.1.0, SVG Export Plug-In . SVG Version: 6.00 Build 0)  -->
<!DOCTYPE svg PUBLIC "-//W3C//DTD SVG 1.1//EN" "http://www.w3.org/Graphics/SVG/1.1/DTD/svg11.dtd">
<svg version="1.1" id="Layer_1" xmlns="http://www.w3.org/2000/svg" xmlns:xlink="http://www.w3.org/1999/xlink" x="0px" y="0px"
	 viewBox="0 0 64 64" style="enable-background:new 0 0 64 64;" xml:space="preserve">
<style type="text/css">
	.st0{fill:#FFF;}
</style>
	<circle class="st0" cx="32" cy="32" r="9.4"/>
	<path class="st0" d="M24.8,23.6c1.1-1,2.4-1.7,3.9-2.1c1.1-0.3,2.1-0.5,3.2-0.5h20c-0.9-2-1.9-3.1-3.2-4.4c-1.4-1.5-3.1-2.9-4.9-4
		c-3.6-2.2-7.6-3.3-11.8-3.3c-1.7,0-3.4,0.2-5.1,0.6c-1.7,0.4-3.4,1-5,1.8c-3.4,1.7-6.3,4.2-8.5,7.2l7.4,12.9c0-0.3,0-0.6,0-0.8
		c0.1-1.4,0.5-2.8,1.2-4.1C22.8,25.7,23.7,24.6,24.8,23.6z"/>
	<path class="st0" d="M31.9,43c-1.3,0-2.5-0.2-3.7-0.6c-1.2-0.4-2.4-1.1-3.4-1.9c-1.6-1.3-2.8-3-3.4-5l-8.8-15.3
		c-1.4,2.3-2.3,4.8-2.9,7.4c-0.3,1.4-0.4,2.9-0.4,4.4c0,1.5,0.2,2.9,0.4,4.3c0.3,1.4,0.7,2.8,1.2,4.2c0.6,1.4,1.2,2.7,2,3.9
		c1.7,2.5,3.8,4.7,6.3,6.4c1.6,1.1,3.3,1.9,5.2,2.6c1.7,0.6,3.4,1,5.2,1.2l7.6-13C35.8,42.5,33.9,43,31.9,43z"/>
	<path class="st0" d="M52.5,22H37.1c1,1,1.8,1.3,2.6,2.1c1,1,1.8,2.3,2.4,3.6c0.6,1.4,0.9,2.9,0.9,4.4c0,1.2-0.2,2.5-0.6,3.6
		c-0.4,1.2-1,2.2-1.7,3.2l-9.2,15.7c0.2,0,0.4,0,0.7,0c2.9,0,5.7-0.5,8.4-1.6c2.6-1,5-2.5,7-4.4c4.2-3.9,6.8-9.2,7.2-15
		c0.2-2,0-4.2-0.3-6.2C53.9,25.7,53.3,24,52.5,22z"/>
</svg>
