<?xml version="1.0" encoding="utf-8"?>
<!-- Generator: Adobe Illustrator 17.1.0, SVG Export Plug-In . SVG Version: 6.00 Build 0)  -->
<!DOCTYPE svg PUBLIC "-//W3C//DTD SVG 1.1//EN" "http://www.w3.org/Graphics/SVG/1.1/DTD/svg11.dtd">
<svg version="1.1" id="Layer_1" xmlns="http://www.w3.org/2000/svg" xmlns:xlink="http://www.w3.org/1999/xlink" x="0px" y="0px"
	 viewBox="0 0 64 64" style="enable-background:new 0 0 64 64;" xml:space="preserve">
<style type="text/css">
	.st0{fill:#FFF;}
</style>
<path class="st0" d="M11.1,38.1c-1.4-0.8-2.3-2.2-3-4.4l-2-6.2c-0.1-0.3,0.1-0.7,0.4-0.8c0.1,0,0.3,0,0.4,0l10.8,3.5
	c0.3,0.1,0.5,0.3,0.6,0.6l2.1,6.4l-2.9,0.9C15.1,38.9,12.6,39,11.1,38.1 M22.3,45.9c0.5,0.3,1.1,0.2,1.5-0.3l5.8-7.9
	c0.1-0.2,0.1-0.4,0-0.6l-0.7-1c-0.1-0.2-0.4-0.3-0.6-0.2l-10.3,3.4c-2.1,0.7-4.2,0.8-5.8,0.2L22.3,45.9z M14.5,56.4v0.7h-0.3v-0.7
	h-0.3v-0.3h0.9v0.3H14.5z M15.9,57.1h0.3v-1H16l-0.4,0.4l-0.3-0.4H15v1h0.3v-0.6l0.3,0.3h0.1l0.3-0.3V57.1z M15.9,57.1h0.3v-1H16
	l-0.4,0.4l-0.3-0.4H15v1h0.3v-0.6l0.3,0.3h0.1l0.3-0.3V57.1z M24.1,21.2l1.8,2.5l5.4-3.9c0.3-0.2,0.4-0.5,0.4-0.8l0-11.4
	c0-0.1,0-0.3-0.1-0.4C31.4,6.8,31,6.8,30.7,7l-5.3,3.8c-1.9,1.4-2.9,2.7-3.3,4.2C21.7,16.8,22.6,19.1,24.1,21.2 M18.2,28.1
	c-0.1,0.6,0.2,1.1,0.7,1.3l9.3,3c0.2,0.1,0.5,0,0.6-0.2l0.7-1c0.1-0.2,0.1-0.4,0-0.6l-6.4-8.8c-1.3-1.8-2.1-3.8-2-5.4L18.2,28.1z
	 M42.2,22.2l-1.8,2.5l5.4,3.9c0.3,0.2,0.6,0.2,0.9,0.1l10.8-3.5c0.1,0,0.2-0.1,0.3-0.2c0.2-0.3,0.1-0.7-0.1-0.9l-5.3-3.8
	c-1.9-1.4-3.4-2-5.1-1.8C45.6,18.6,43.6,20.1,42.2,22.2 M33.7,18.7c-0.6,0-1,0.5-1,1.1l0,9.8c0,0.2,0.2,0.4,0.4,0.5l1.2,0.4
	c0.2,0.1,0.5,0,0.6-0.2l6.4-8.8c1.3-1.8,2.9-3.1,4.5-3.6L33.7,18.7z M46.8,39.7l-2.9-0.9l-2.1,6.4c-0.1,0.3,0,0.6,0.1,0.9l6.7,9.2
	c0.1,0.1,0.2,0.2,0.3,0.2c0.3,0.1,0.7-0.1,0.8-0.4l2-6.2c0.7-2.3,0.8-3.9,0.2-5.4C51.3,41.9,49.2,40.5,46.8,39.7 M47.5,30.6
	c-0.2-0.5-0.8-0.8-1.4-0.6l-9.3,3c-0.2,0.1-0.4,0.3-0.4,0.5l0,1.3c0,0.2,0.1,0.4,0.4,0.5l10.3,3.4c2.1,0.7,3.9,1.8,4.8,3.2
	L47.5,30.6z M31.6,49.5v-3.1h-6.7c-0.3,0-0.6,0.2-0.8,0.4l-6.7,9.2c-0.1,0.1-0.1,0.2-0.1,0.4c0,0.4,0.3,0.7,0.7,0.7h6.5
	c2.4,0,3.9-0.4,5.2-1.5C30.9,54.5,31.6,52.1,31.6,49.5 M40.4,47.4c0.4-0.4,0.5-1,0.2-1.5L34.9,38c-0.1-0.2-0.4-0.3-0.6-0.2l-1.2,0.4
	c-0.2,0.1-0.4,0.3-0.4,0.5v10.9c0,2.2-0.5,4.3-1.6,5.6L40.4,47.4z"/>
</svg>
