<?xml version="1.0" encoding="utf-8"?>
<!-- Generator: Adobe Illustrator 17.1.0, SVG Export Plug-In . SVG Version: 6.00 Build 0)  -->
<!DOCTYPE svg PUBLIC "-//W3C//DTD SVG 1.1//EN" "http://www.w3.org/Graphics/SVG/1.1/DTD/svg11.dtd">
<svg version="1.1" id="Layer_1" xmlns="http://www.w3.org/2000/svg" xmlns:xlink="http://www.w3.org/1999/xlink" x="0px" y="0px"
	 viewBox="0 0 64 64" style="enable-background:new 0 0 64 64;" xml:space="preserve">
<style type="text/css">
	.st0{fill:#FFF;}
</style>
<path class="st0" d="M12.8,22.6c-1.8,0-3.3,1.5-3.3,3.3l0,13.7c0,1.8,1.5,3.3,3.3,3.3c1.8,0,3.3-1.5,3.3-3.3l0-13.7
	C16.1,24.1,14.6,22.6,12.8,22.6 M39.2,10.3l2.3-4.2c0.1-0.2,0-0.5-0.2-0.6c-0.2-0.1-0.5,0-0.6,0.2l-2.3,4.2C36.5,9,34.3,8.5,32,8.5
	c-2.3,0-4.5,0.5-6.4,1.3l-2.3-4.2c-0.1-0.2-0.4-0.3-0.6-0.2c-0.2,0.1-0.3,0.4-0.2,0.6l2.3,4.2c-4.5,2.3-7.5,6.7-7.5,11.8l29.6,0
	C46.8,17,43.7,12.6,39.2,10.3 M25.3,16.7c-0.7,0-1.2-0.6-1.2-1.2c0-0.7,0.6-1.2,1.2-1.2c0.7,0,1.2,0.6,1.2,1.2
	C26.5,16.2,26,16.7,25.3,16.7 M38.7,16.7c-0.7,0-1.2-0.6-1.2-1.2c0-0.7,0.6-1.2,1.2-1.2c0.7,0,1.2,0.6,1.2,1.2
	C40,16.2,39.4,16.7,38.7,16.7 M17.3,23.2l0,21.3c0,1.9,1.6,3.5,3.5,3.5l2.4,0l0,7.3c0,1.8,1.5,3.3,3.3,3.3c1.8,0,3.3-1.5,3.3-3.3
	l0-7.3l4.4,0l0,7.3c0,1.8,1.5,3.3,3.3,3.3c1.8,0,3.3-1.5,3.3-3.3l0-7.3l2.4,0c1.9,0,3.5-1.6,3.5-3.5l0-21.3L17.3,23.2z M54.5,25.9
	c0-1.8-1.5-3.3-3.3-3.3c-1.8,0-3.3,1.5-3.3,3.3l0,13.7c0,1.8,1.5,3.3,3.3,3.3c1.8,0,3.3-1.5,3.3-3.3L54.5,25.9z"/>
</svg>
