<?xml version="1.0" encoding="utf-8"?>
<!-- Generator: Adobe Illustrator 17.1.0, SVG Export Plug-In . SVG Version: 6.00 Build 0)  -->
<!DOCTYPE svg PUBLIC "-//W3C//DTD SVG 1.1//EN" "http://www.w3.org/Graphics/SVG/1.1/DTD/svg11.dtd">
<svg version="1.1" id="Layer_1" xmlns="http://www.w3.org/2000/svg" xmlns:xlink="http://www.w3.org/1999/xlink" x="0px" y="0px"
	 viewBox="0 0 1126 580.8" enable-background="new 0 0 1126 580.8" xml:space="preserve">
<polygon fill="#FFFFFF" points="443.7,5.8 439.1,0 217.5,0 450.9,292.3 561.7,153.5 560.3,151.9 "/>
<polygon fill="#FFFFFF" points="567.6,146.1 684.2,0 450.9,0 "/>
<polygon fill="#FFFFFF" points="916.5,0 696.1,0 691.5,5.8 574.8,151.9 573.5,153.5 684.5,292.5 "/>
<g>
	<path fill="#FFFFFF" d="M113,554.8c-2.5,3.6-4.9,7.2-8.1,10.3c-2.9,3.1-6.5,6.1-10.5,8.3c-4,2.2-8.7,4.3-14.1,5.6
		c-5.4,1.1-11.7,1.8-18.8,1.8c-20.9,0-36.3-5.8-46.4-17.7S0,533.5,0,509.7C0,486,5.2,468,15.2,456.4c10.1-11.7,25.1-17.7,45.3-17.7
		c7,0,13,0.7,18.4,2s10.1,3.1,14.1,5.4s7.6,4.9,10.5,7.8c2.9,3.1,5.4,6.3,7.6,9.9L92.8,477c-1.3-2.2-3.1-4.5-4.7-6.5
		c-2-2-4.3-4-6.7-5.6c-2.5-1.6-5.4-2.9-8.7-4c-3.4-1.1-7.4-1.6-11.9-1.6c-12.8,0-22.2,4.3-28.3,12.8c-6.1,8.5-9,21.1-9,37.9
		c0,9,0.9,16.6,2.5,23.1c1.6,6.3,4,11.7,7.2,15.7c3.1,4,7,7.2,11.7,9s10.1,2.9,16.1,2.9c4.5,0,8.5-0.4,11.9-1.6c3.4-0.9,6.5-2.2,9-4
		c2.7-1.6,4.9-3.6,7-5.8c2-2.2,3.8-4.7,5.6-7.2L113,554.8z"/>
	<path fill="#FFFFFF" d="M210.1,578.1l-34.8-53.8h-19.1v53.8h-22.9V441.8h46c8.1,0,15.2,0.7,21.5,2c6.1,1.3,11.2,3.6,15.2,6.7
		c4,3.1,7.2,7.2,9.2,12.1c2,4.9,3.1,11.2,3.1,18.4c0,6.5-0.7,11.9-2,16.6c-1.3,4.7-3.4,8.5-5.8,11.9c-2.5,3.1-5.6,5.8-9,7.6
		c-3.6,1.8-7.2,3.1-11.4,4l36.6,56.7h-26.7V578.1z M205,482.4c0-4-0.4-7.4-1.6-9.9c-1.1-2.5-2.5-4.7-4.5-6.3c-2-1.6-4.7-2.7-8.1-3.4
		c-3.4-0.7-7.2-0.9-11.7-0.9h-22.7v42.2h21.5c5.2,0,9.4-0.4,13-1.1c3.4-0.7,6.3-2,8.3-3.6s3.6-4,4.5-6.7
		C204.5,489.8,205,486.4,205,482.4z"/>
	<path fill="#FFFFFF" d="M363.3,510c0,11.2-1.1,21.1-3.1,29.8c-2.2,8.7-5.6,16.1-10.1,22.4c-4.5,6.3-10.5,10.8-17.7,13.9
		c-7.2,3.1-15.9,4.9-26,4.9s-18.8-1.6-26-4.9c-7.2-3.4-13-7.8-17.7-13.9c-4.7-6.1-8.1-13.5-10.1-22.4c-2.2-8.7-3.4-18.8-3.4-29.8
		s1.1-21.1,3.4-30.1c2.2-9,5.6-16.1,10.1-22.4c4.5-6.3,10.5-10.8,17.7-13.9s15.9-4.9,26-4.9s18.8,1.6,26,4.7
		c7.2,3.1,13.2,7.8,17.7,13.9c4.7,6.1,8.1,13.5,10.1,22.4C362.2,488.7,363.3,498.8,363.3,510z M339.3,510c0-8.5-0.7-15.9-1.8-22.2
		c-1.1-6.3-3.1-11.7-5.6-15.9c-2.7-4.3-6.1-7.4-10.3-9.4c-4.3-2-9.4-3.1-15.5-3.1s-11.2,1.1-15.5,3.1c-4.3,2-7.6,5.2-10.3,9.4
		c-2.7,4.3-4.5,9.4-5.6,15.9c-1.1,6.3-1.8,13.7-1.8,22.2c0,8.5,0.7,15.9,1.8,22.2c1.1,6.3,3.1,11.7,5.8,15.9
		c2.7,4.3,6.1,7.4,10.3,9.4c4.3,2,9.4,3.1,15.5,3.1s11.2-1.1,15.5-3.1s7.6-5.2,10.3-9.4c2.7-4.3,4.5-9.4,5.6-15.9
		C338.6,525.9,339.3,518.5,339.3,510z"/>
	<path fill="#FFFFFF" d="M482.2,539.8c0,7.6-1.3,14.1-4,19.3c-2.7,5.2-6.5,9.4-11,12.8c-4.7,3.4-10.1,5.6-16.4,7
		c-6.3,1.3-12.8,2-19.7,2c-7.4,0-13.9-0.7-19.3-2c-5.4-1.3-10.3-3.4-14.6-5.6c-4.3-2.2-7.6-5.2-10.5-8.3c-2.9-3.1-5.4-6.5-7.6-10.1
		l18.2-13c1.6,2.5,3.4,4.9,5.4,7.2c2,2.2,4.3,4.3,7,6.1c2.7,1.8,5.8,3.1,9.4,4c3.6,1.1,7.6,1.6,12.3,1.6c3.6,0,7-0.2,10.1-0.9
		c3.1-0.7,6.3-1.8,8.7-3.4c2.5-1.6,4.7-3.6,6.1-5.8c1.3-2.2,2.2-5.4,2.2-9c0-3.4-0.7-6.3-2.2-8.5c-1.6-2.2-3.4-4.3-6.1-5.8
		c-2.5-1.6-5.4-2.9-8.7-4c-3.4-1.1-7-2-10.8-3.1c-7-1.8-13.5-3.6-19.5-5.4s-11.2-4.3-15.5-7.2c-4.5-2.9-7.8-6.5-10.3-11
		s-3.8-10.1-3.8-17c0-6.3,1.1-11.7,3.1-16.6c2-4.9,5.2-9.2,9.2-12.8c4-3.6,9.2-6.3,15.2-8.1s13-2.9,20.9-2.9
		c5.8,0,11.2,0.4,16.1,1.6c4.9,1.1,9.4,2.7,13.2,4.7c4,2,7.6,4.7,10.8,7.6c3.1,3.1,5.8,6.5,8.3,10.3l-17.9,13.2
		c-3.6-5.8-7.8-10.1-12.8-13c-4.9-2.9-11-4.3-17.9-4.3c-7.6,0-13.7,1.6-18.4,4.7c-4.7,3.1-6.7,7.6-6.7,13.5c0,2.9,0.7,5.4,1.8,7.2
		s3.1,3.6,5.6,5.2c2.5,1.6,5.6,2.7,9.6,3.8c3.8,1.1,8.3,2.2,13.7,3.6c4,0.9,8.1,2,11.9,3.1c3.8,1.1,7.4,2.5,11,3.8
		c3.4,1.6,6.7,3.1,9.4,5.2c2.9,2,5.4,4.5,7.4,7.2s3.6,6.1,4.9,9.9S482.2,534.9,482.2,539.8z"/>
	<path fill="#FFFFFF" d="M600.6,539.8c0,7.6-1.3,14.1-4,19.3c-2.7,5.2-6.5,9.4-11,12.8c-4.7,3.4-10.1,5.6-16.4,7
		c-6.3,1.3-12.8,2-19.7,2c-7.4,0-13.9-0.7-19.3-2c-5.4-1.3-10.3-3.4-14.6-5.6c-4.3-2.2-7.6-5.2-10.5-8.3c-2.9-3.1-5.4-6.5-7.6-10.1
		l18.2-13c1.6,2.5,3.4,4.9,5.4,7.2c2,2.2,4.3,4.3,7,6.1c2.7,1.8,5.8,3.1,9.4,4c3.6,1.1,7.6,1.6,12.3,1.6c3.6,0,7-0.2,10.1-0.9
		c3.4-0.7,6.3-1.8,8.7-3.4c2.5-1.6,4.7-3.6,6.1-5.8c1.6-2.5,2.2-5.4,2.2-9c0-3.4-0.7-6.3-2.2-8.5c-1.6-2.2-3.4-4.3-6.1-5.8
		s-5.4-2.9-8.7-4c-3.4-1.1-7-2-10.8-3.1c-7-1.8-13.5-3.6-19.5-5.4c-6.1-1.8-11.2-4.3-15.5-7.2c-4.3-2.9-7.8-6.5-10.3-11
		s-3.8-10.1-3.8-17c0-6.3,1.1-11.7,3.1-16.6c2-4.9,5.2-9.2,9.2-12.8c4-3.6,9.2-6.3,15.2-8.1c6.1-1.8,13-2.9,20.9-2.9
		c5.8,0,11.2,0.4,16.1,1.6s9.4,2.7,13.2,4.7c4,2,7.6,4.7,10.8,7.6c3.1,3.1,5.8,6.5,8.3,10.3l-17.9,13.2c-3.6-5.8-7.8-10.1-12.8-13
		c-4.9-2.9-11-4.3-17.9-4.3c-7.6,0-13.7,1.6-18.4,4.7c-4.5,3.1-6.7,7.6-6.7,13.5c0,2.9,0.7,5.4,1.8,7.2c1.1,2,3.1,3.6,5.6,5.2
		c2.5,1.3,5.6,2.7,9.6,3.8c3.8,1.1,8.3,2.2,13.7,3.6c4,0.9,8.1,2,11.9,3.1c3.8,1.1,7.4,2.5,11,3.8c3.4,1.6,6.7,3.1,9.4,5.2
		c2.7,2,5.4,4.5,7.4,7.2s3.6,6.1,4.9,9.9C599.7,530.1,600.6,534.9,600.6,539.8z"/>
	<path fill="#FFFFFF" d="M743.6,578.1h-25.1l-24-99.8l-24.4,99.8h-24.9l-33.4-136.3h22.9l23.5,99.6l24.2-99.6h24L731.1,542l24-100.2
		h22.7L743.6,578.1z"/>
	<path fill="#FFFFFF" d="M781.8,578.1l45.7-136.3h29.8l46,136.3h-23.8L869,546.7h-54l-10.3,31.4H781.8z M821.7,526.1h40.6
		l-20.2-61.4L821.7,526.1z"/>
	<path fill="#FFFFFF" d="M921.3,578.1V441.8h22.9v115.5h59.7v21.1h-82.5V578.1z"/>
	<path fill="#FFFFFF" d="M1096.8,578.1l-42.4-58.8l-10.5,12.1v46.6H1021V441.8h22.9v60.1l51.4-60.1h27.6l-53.4,60.5l56.5,75.8
		H1096.8z"/>
</g>
</svg>
