<?xml version="1.0" encoding="utf-8"?>
<!-- Generator: Adobe Illustrator 17.1.0, SVG Export Plug-In . SVG Version: 6.00 Build 0)  -->
<!DOCTYPE svg PUBLIC "-//W3C//DTD SVG 1.1//EN" "http://www.w3.org/Graphics/SVG/1.1/DTD/svg11.dtd">
<svg version="1.1" id="Layer_1" xmlns="http://www.w3.org/2000/svg" xmlns:xlink="http://www.w3.org/1999/xlink" x="0px" y="0px"
	 viewBox="0 249.3 1126 104.7" enable-background="new 0 249.3 1126 104.7" xml:space="preserve">
<g>
	<polygon fill="#484240" points="250.4,249.3 171.4,249.3 169.8,251.3 128,303.7 127.5,304.3 167.3,354.1 	"/>
	<polygon fill="#484240" points="81,251.3 79.4,249.3 0,249.3 83.6,354 123.3,304.3 122.8,303.7 	"/>
	<polygon fill="#484240" points="125.4,301.6 167.2,249.3 83.6,249.3 	"/>
</g>
<g>
	<path fill="#484240" d="M379,335c-1.7,2.7-3.7,5.2-5.9,7.6c-2.2,2.4-4.8,4.4-7.8,6.1c-3,1.7-6.5,3.1-10.4,4.1
		c-4,1-8.6,1.5-13.9,1.5c-15.4,0-26.8-4.4-34.2-13.1c-7.4-8.7-11.2-21.8-11.2-39.3c0-17.6,3.7-30.7,11.2-39.4
		c7.5-8.7,18.6-13,33.4-13c5.1,0,9.6,0.5,13.5,1.4c3.9,0.9,7.4,2.2,10.4,3.9c3,1.6,5.6,3.6,7.7,5.8c2.2,2.3,4,4.7,5.6,7.3l-13.5,9.8
		c-1.1-1.6-2.2-3.3-3.5-4.9c-1.3-1.6-2.8-3-4.7-4.3c-1.8-1.2-4-2.2-6.4-3s-5.4-1.1-8.8-1.1c-9.4,0-16.4,3.1-20.8,9.4
		c-4.4,6.2-6.6,15.6-6.6,28c0,6.6,0.6,12.3,1.8,17c1.2,4.7,2.9,8.6,5.3,11.6c2.3,3,5.2,5.2,8.6,6.6c3.4,1.4,7.4,2.1,11.8,2.1
		c3.3,0,6.3-0.4,8.8-1.1s4.7-1.7,6.6-2.9c1.9-1.2,3.6-2.7,5-4.4c1.5-1.7,2.8-3.5,4.1-5.3L379,335z"/>
	<path fill="#484240" d="M450.7,352.2l-25.6-39.6h-14v39.6h-16.9V251.6h33.9c6,0,11.3,0.5,15.8,1.6c4.5,1,8.3,2.7,11.3,5
		c3,2.3,5.3,5.3,6.8,9c1.5,3.7,2.3,8.2,2.3,13.6c0,4.7-0.5,8.8-1.6,12.3c-1,3.4-2.5,6.3-4.4,8.7c-1.9,2.4-4.1,4.3-6.6,5.6
		c-2.6,1.4-5.4,2.4-8.4,3l27,41.8H450.7z M446.9,281.6c0-3-0.4-5.4-1.1-7.3c-0.7-1.9-1.9-3.5-3.4-4.7c-1.5-1.2-3.5-2-5.9-2.5
		c-2.4-0.5-5.2-0.7-8.5-0.7h-16.9v31.2H427c3.8,0,7-0.3,9.6-0.8c2.5-0.6,4.6-1.5,6.1-2.7c1.5-1.3,2.6-2.9,3.2-4.9
		C446.6,287.1,446.9,284.6,446.9,281.6z"/>
	<path fill="#484240" d="M563.6,301.9c0,8.2-0.8,15.6-2.4,22.1c-1.6,6.5-4.1,12-7.5,16.5c-3.4,4.5-7.8,7.9-13.1,10.3
		c-5.3,2.4-11.7,3.6-19.2,3.6c-7.5,0-13.8-1.2-19.1-3.6s-9.7-5.8-13.1-10.3c-3.4-4.5-5.9-10-7.5-16.5c-1.6-6.5-2.4-13.8-2.4-22.1
		s0.8-15.6,2.4-22.1c1.6-6.5,4.1-12,7.5-16.5c3.4-4.5,7.8-7.9,13.1-10.3s11.7-3.6,19.1-3.6c7.5,0,13.9,1.2,19.2,3.5
		c5.3,2.3,9.7,5.8,13.1,10.2c3.4,4.5,5.9,10,7.5,16.5C562.8,286.2,563.6,293.6,563.6,301.9z M545.9,301.9c0-6.2-0.4-11.7-1.3-16.4
		c-0.9-4.7-2.3-8.6-4.2-11.7s-4.5-5.4-7.6-7s-6.9-2.3-11.3-2.3c-4.5,0-8.3,0.8-11.4,2.3s-5.7,3.9-7.6,7s-3.3,7-4.2,11.7
		c-0.9,4.7-1.3,10.1-1.3,16.4s0.4,11.7,1.3,16.4c0.9,4.7,2.3,8.6,4.3,11.7s4.5,5.4,7.6,7c3.1,1.6,6.9,2.3,11.4,2.3
		c4.5,0,8.2-0.8,11.3-2.3c3.1-1.5,5.6-3.8,7.6-6.9s3.3-7,4.2-11.7C545.4,313.7,545.9,308.2,545.9,301.9z"/>
	<path fill="#484240" d="M651.2,323.9c0,5.7-1,10.4-3,14.3c-2,3.8-4.7,7-8.2,9.4c-3.4,2.4-7.4,4.1-12,5.2c-4.6,1-9.4,1.6-14.6,1.6
		c-5.4,0-10.2-0.5-14.2-1.5c-4.1-1-7.6-2.4-10.7-4.1c-3.1-1.7-5.7-3.8-7.8-6.1c-2.2-2.3-4-4.8-5.6-7.5l13.4-9.7
		c1.2,1.9,2.6,3.7,4,5.3c1.5,1.7,3.2,3.1,5.2,4.4c2,1.3,4.3,2.3,6.9,3c2.6,0.8,5.6,1.1,9.1,1.1c2.6,0,5.1-0.2,7.5-0.7
		c2.4-0.5,4.6-1.3,6.5-2.4c1.9-1.1,3.4-2.6,4.5-4.4c1.1-1.8,1.7-4,1.7-6.7c0-2.5-0.5-4.6-1.6-6.3c-1.1-1.7-2.6-3.1-4.4-4.3
		c-1.8-1.2-4-2.1-6.5-2.9c-2.5-0.8-5.1-1.5-7.9-2.3c-5.1-1.3-9.9-2.7-14.3-4c-4.4-1.4-8.2-3.1-11.5-5.3s-5.8-4.8-7.7-8.1
		c-1.9-3.3-2.8-7.5-2.8-12.6c0-4.6,0.8-8.7,2.3-12.3c1.6-3.7,3.8-6.8,6.8-9.4c3-2.6,6.7-4.6,11.2-6c4.5-1.4,9.6-2.1,15.4-2.1
		c4.4,0,8.3,0.4,12,1.2c3.6,0.8,6.9,2,9.8,3.5c2.9,1.5,5.6,3.4,7.9,5.7c2.3,2.3,4.4,4.8,6.1,7.7l-13.2,9.8c-2.7-4.3-5.8-7.5-9.4-9.6
		c-3.6-2.1-8.1-3.2-13.3-3.2c-5.7,0-10.2,1.2-13.5,3.5c-3.3,2.3-5,5.6-5,9.9c0,2.1,0.4,3.9,1.3,5.3c0.9,1.4,2.3,2.7,4.1,3.7
		c1.9,1.1,4.2,2,7,2.9c2.8,0.8,6.2,1.7,10.1,2.7c3,0.7,5.9,1.5,8.8,2.3c2.8,0.8,5.5,1.8,8.1,2.9c2.5,1.1,4.9,2.4,7,3.9
		s4,3.3,5.5,5.3c1.5,2.1,2.7,4.5,3.6,7.3C650.8,317,651.2,320.2,651.2,323.9z"/>
	<path fill="#484240" d="M738.6,323.9c0,5.7-1,10.4-3,14.3c-2,3.8-4.7,7-8.2,9.4c-3.4,2.4-7.4,4.1-12,5.2c-4.6,1-9.4,1.6-14.6,1.6
		c-5.4,0-10.2-0.5-14.2-1.5c-4.1-1-7.6-2.4-10.7-4.1c-3.1-1.7-5.7-3.8-7.8-6.1c-2.2-2.3-4-4.8-5.6-7.5l13.4-9.7
		c1.2,1.9,2.6,3.7,4,5.3c1.5,1.7,3.2,3.1,5.2,4.4c2,1.3,4.3,2.3,6.9,3c2.6,0.8,5.6,1.1,9.1,1.1c2.6,0,5.1-0.2,7.5-0.7
		s4.6-1.3,6.5-2.4c1.9-1.1,3.4-2.6,4.5-4.4c1.1-1.8,1.7-4,1.7-6.7c0-2.5-0.5-4.6-1.6-6.3c-1.1-1.7-2.6-3.1-4.4-4.3
		c-1.8-1.2-4-2.1-6.5-2.9c-2.5-0.8-5.1-1.5-7.9-2.3c-5.1-1.3-9.9-2.7-14.3-4c-4.4-1.4-8.2-3.1-11.5-5.3c-3.2-2.1-5.8-4.8-7.7-8.1
		c-1.9-3.3-2.8-7.5-2.8-12.6c0-4.6,0.8-8.7,2.3-12.3c1.6-3.7,3.8-6.8,6.8-9.4c3-2.6,6.7-4.6,11.2-6c4.5-1.4,9.6-2.1,15.4-2.1
		c4.4,0,8.3,0.4,12,1.2c3.6,0.8,6.9,2,9.8,3.5c2.9,1.5,5.6,3.4,7.9,5.7c2.3,2.3,4.4,4.8,6.1,7.7l-13.2,9.8c-2.7-4.3-5.8-7.5-9.4-9.6
		c-3.6-2.1-8.1-3.2-13.3-3.2c-5.7,0-10.2,1.2-13.5,3.5c-3.3,2.3-5,5.6-5,9.9c0,2.1,0.4,3.9,1.3,5.3c0.9,1.4,2.3,2.7,4.1,3.7
		c1.9,1.1,4.2,2,7,2.9c2.8,0.8,6.2,1.7,10.1,2.7c3,0.7,5.9,1.5,8.8,2.3c2.8,0.8,5.5,1.8,8.1,2.9c2.5,1.1,4.9,2.4,7,3.9
		c2.1,1.5,4,3.3,5.5,5.3c1.5,2.1,2.7,4.5,3.6,7.3C738.1,317,738.6,320.2,738.6,323.9z"/>
	<path fill="#484240" d="M844.1,352.2h-18.5l-17.9-73.5l-18,73.5h-18.3l-24.6-100.6h16.9l17.4,73.5l17.9-73.5h17.7l18.2,73.9
		l17.7-73.9h16.7L844.1,352.2z"/>
	<path fill="#484240" d="M872.1,352.2l33.8-100.6h22l33.9,100.6h-17.6l-7.7-23.2h-39.9l-7.6,23.2H872.1z M901.5,313.8h29.9
		l-14.9-45.3L901.5,313.8z"/>
	<path fill="#484240" d="M975,352.2V251.6h16.9v85.1h44v15.5H975z"/>
	<path fill="#484240" d="M1104.6,352.2l-31.2-43.3l-7.8,8.9v34.4h-16.9V251.6h16.9v44.3l37.7-44.3h20.3l-39.3,44.8l41.7,55.8H1104.6
		z"/>
</g>
</svg>
